<svg xmlns="http://www.w3.org/2000/svg" viewBox="0 0 1920 1080" enable-background="new 0 0 30 30" height="100px" width="100px">
  <defs>
    <style>.cls-1{fill:#29abe2;stroke:#fff;}.cls-1,.cls-10,.cls-12,.cls-2,.cls-3,.cls-4,.cls-5,.cls-6,.cls-7,.cls-9{stroke-miterlimit:10;}.cls-1,.cls-10,.cls-5,.cls-7{stroke-width:5px;}.cls-10,.cls-12,.cls-2,.cls-3,.cls-4,.cls-5,.cls-6,.cls-7,.cls-9{stroke:#4d4d4d;}.cls-2,.cls-3,.cls-4,.cls-6,.cls-9{stroke-width:10px;}.cls-12,.cls-3,.cls-7{fill:none;}.cls-4{fill:#818783;}.cls-11,.cls-5,.cls-6{fill:#fff;}.cls-8,.cls-9{fill:red;}.cls-10{fill:#666;}.cls-11{font-size:49.49px;font-family:MyriadPro-Regular, Myriad Pro;}.cls-12{stroke-width:8px;}
    </style>
  </defs>

  <title>logo1</title>

  <g id="fondo"></g><g id="chico"><path class="cls-1" d="M965.07,735c2.38,2.37,4.93,3.1,8.29,4a35,35,0,0,0,12.2,1.07c7.78-.6,15.61-.11,23.41-.53,7.61-.42,4.31,0,25.6-.54,14.87-.37,21.16-.69,42.67-1.33,11.16-.34,16.77-.51,18.54-.45.12,0,2.66.09,6.09-.09,2.77-.15,4.16-.22,4.88-.53,3.81-1.65,5.08-8.5,5.12-12.57,0-1.66-.11-10.91-7.07-15.77-3.7-2.58-9-3.71-13.17-1.6-2.78,1.42-4.53,4.07-4.88,3.74s3.6-4.29,3.42-9.35a9.9,9.9,0,0,0-4.15-7.76c-3.24-2-7.75-1.06-10.48.54-1.36.79-2.33,1.76-2.93,1.34-.86-.61.5-3-.24-6.42a8.72,8.72,0,0,0-2.44-4.54,7.46,7.46,0,0,0-5.37-1.61c-5.59.08-8.88,3.92-9.75,2.94-.67-.74,1.38-2.8,2.19-6.68,1.28-6.08-1.54-11.6-2.44-13.36a19.87,19.87,0,0,0-5.85-7.22c-4.19-3.12-8.4-3.34-11.21-3.48a21.31,21.31,0,0,0-11.22,2.14,23.91,23.91,0,0,0-8.29,7.22,50.28,50.28,0,0,0-3.17,5.08c-1.8,3.09-2.69,4.63-2.93,5.88-.8,4.27,1.84,7.61,1,8.28-.63.5-1.86-1.4-4.88-2.67a11.92,11.92,0,0,0-6.83-.8,12.77,12.77,0,0,0-6.09,3.47c-1.66,1.46-4.62,4.08-5.61,8.29s.67,7.36-.73,8.29c-.79.52-1.5-.34-4.15-.8a15.17,15.17,0,0,0-5.12,0,17.65,17.65,0,0,0-6.58,2.4,25,25,0,0,0-8.78,9.09,22.17,22.17,0,0,0-3.66,11C960.39,723.05,960.3,730.24,965.07,735Z"/><path class="cls-1" d="M630.47,738.07c3.85,3.83,8,5,13.41,6.49a56.76,56.76,0,0,0,19.73,1.73c12.59-1,25.26-.19,37.87-.87,12.32-.67,7,0,41.42-.86,24.06-.61,34.23-1.12,69-2.17,18-.54,27.14-.81,30-.71.18,0,4.3.15,9.85-.15,4.48-.24,6.72-.36,7.89-.87,6.16-2.67,8.23-13.74,8.28-20.32,0-2.69-.18-17.66-11.44-25.52-6-4.17-14.63-6-21.3-2.59-4.49,2.3-7.33,6.58-7.89,6-.76-.7,5.81-6.94,5.52-15.13-.17-4.81-2.7-10-6.71-12.54-5.24-3.31-12.53-1.72-17,.86-2.2,1.28-3.76,2.85-4.74,2.16-1.38-1,.82-4.85-.39-10.37a14,14,0,0,0-3.94-7.36c-3-2.62-6.5-2.62-8.68-2.59-9,.13-14.37,6.34-15.78,4.76-1.08-1.2,2.23-4.54,3.55-10.81,2-9.83-2.49-18.77-4-21.63A32.36,32.36,0,0,0,765.78,614c-6.78-5.06-13.59-5.4-18.14-5.62a34.5,34.5,0,0,0-18.15,3.45,38.8,38.8,0,0,0-13.41,11.68,80.68,80.68,0,0,0-5.13,8.22c-2.91,5-4.36,7.5-4.74,9.51-1.3,6.92,3,12.31,1.58,13.41-1,.79-3-2.28-7.89-4.33a19.15,19.15,0,0,0-11-1.29c-4.52.9-7.43,3.48-9.86,5.62-2.67,2.36-7.47,6.59-9.07,13.4s1.08,11.91-1.19,13.41c-1.27.85-2.41-.55-6.7-1.3a25.3,25.3,0,0,0-8.29,0A28.9,28.9,0,0,0,643.09,684a40.63,40.63,0,0,0-14.2,14.71c-2.39,4.11-5.64,9.7-5.92,17.73C622.89,718.77,622.74,730.39,630.47,738.07Z"/><path class="cls-2" d="M1039.45,374.5V698.43a17.68,17.68,0,0,1-5.08,12.26,17.3,17.3,0,0,1-12.27,5.08H788.6a17.34,17.34,0,0,1-17.35-17.34V374.5a17.35,17.35,0,0,1,17.35-17.35h233.5A17.35,17.35,0,0,1,1039.45,374.5Z"/><line class="cls-3" x1="874.7" y1="383.61" x2="936.01" y2="383.61"/><line class="cls-3" x1="852.42" y1="387.58" x2="852.42" y2="381.41"/><rect class="cls-4" x="771.25" y="409.64" width="268.2" height="253.2"/><rect class="cls-5" x="788.68" y="581.45" width="229.82" height="48.52" rx="17.25"/><rect class="cls-5" x="788.24" y="581.45" width="48.52" height="48.52" rx="17.25"/><rect class="cls-5" x="814.26" y="505.14" width="187.92" height="39.7"/><rect class="cls-6" x="897.41" y="681.37" width="11.03" height="11.03"/><line class="cls-7" x1="814.26" y1="568.22" x2="952.33" y2="568.22"/><line class="cls-7" x1="960.71" y1="568.22" x2="996.44" y2="568.22"/><path class="cls-8" d="M1090.84,479.22H708a189.41,189.41,0,0,1,18.23-27.34,195.15,195.15,0,0,1,45.48-41.22l262.48.47a162.24,162.24,0,0,1,43.75,44.17A154.55,154.55,0,0,1,1090.84,479.22Z"/><path class="cls-9" d="M713.18,476.39c.42,9.29,7.45,16.61,15.6,17.24,9.36.72,18.34-7.52,18.28-18.34"/><path class="cls-9" d="M747.29,476.2c.42,9.39,7.45,16.79,15.59,17.43,9.36.73,18.34-7.61,18.29-18.54"/><path class="cls-9" d="M781.39,476.39c.42,9.29,7.45,16.61,15.6,17.24,9.36.72,18.34-7.52,18.28-18.34"/><path class="cls-9" d="M815.5,476.2c.42,9.39,7.45,16.79,15.59,17.43,9.36.73,18.34-7.61,18.29-18.54"/><path class="cls-9" d="M849.15,476.39c.42,9.29,7.45,16.61,15.59,17.24,9.36.72,18.34-7.52,18.29-18.34"/><path class="cls-9" d="M883.26,476.2c.41,9.39,7.44,16.79,15.59,17.43,9.36.73,18.34-7.61,18.28-18.54"/><path class="cls-9" d="M917.36,476.39c.42,9.29,7.45,16.61,15.59,17.24,9.36.72,18.34-7.52,18.29-18.34"/><path class="cls-9" d="M951.47,476.2c.41,9.39,7.45,16.79,15.59,17.43,9.36.73,18.34-7.61,18.28-18.54"/><path class="cls-9" d="M985.12,476.2c.41,9.39,7.45,16.79,15.59,17.43,9.36.73,18.34-7.61,18.28-18.54"/><path class="cls-9" d="M1019.22,476.39c.42,9.29,7.45,16.61,15.6,17.24,9.36.72,18.33-7.52,18.28-18.34"/><path class="cls-9" d="M1053.33,476.2c.41,9.39,7.45,16.79,15.59,17.43,9.36.73,18.34-7.61,18.28-18.54"/><path class="cls-3" d="M713.25,479.55a92.9,92.9,0,0,1,20.54-40.21A106.62,106.62,0,0,1,775,410.46"/><path class="cls-3" d="M1036.33,409.5c11.2,6.36,23.5,15.52,33.47,28.78a96.43,96.43,0,0,1,17.25,38.36"/><line class="cls-3" x1="771.84" y1="410.46" x2="1040.14" y2="410.46"/><path class="cls-6" d="M1175.57,611.13c.58,6.59,1.35,15.18-3.51,24.38-7.84,14.86-24.55,20.27-31.21,22.43-10.95,3.55-21.3,3.74-27.36,3.9-16.43.43-17.44-2.19-24.55,0-10.86,3.36-10.34,10.07-21.74,15.28-14.13,6.46-30.2,3.12-30.51,1-.28-1.91,12.15-1.82,20.69-11.06,1.6-1.73,8.1-9.23,6.66-17.88-1.34-8.13-8.36-9.16-13.67-18.53-5.62-9.9-4.2-20.1-3.51-25,2.68-19.26,17.05-30.68,20.69-33.48,16.1-12.4,34.17-12.83,41.91-13,8.87-.21,32.09-.75,49.63,15.61C1173.61,588.26,1175.07,605.54,1175.57,611.13Z"/><ellipse class="cls-10" cx="1144.81" cy="652.17" rx="24.84" ry="24.14"/><text class="cls-11" transform="translate(1123.53 663.12) scale(1.16 1)">@</text><line class="cls-12" x1="1075.32" y1="591.13" x2="1150.58" y2="591.13"/><line class="cls-12" x1="1075.32" y1="610.97" x2="1091.71" y2="610.97"/><line class="cls-12" x1="1112.78" y1="610.97" x2="1144.89" y2="610.97"/><line class="cls-12" x1="1075.32" y1="632.1" x2="1112.78" y2="632.1"/></g></svg>
